<?xml version="1.0" encoding="UTF-8"?>
<svg xmlns="http://www.w3.org/2000/svg" xmlns:xlink="http://www.w3.org/1999/xlink" width="50px" height="50px" viewBox="0 0 50 50" version="1.1">
<g id="surface1">
<path style=" stroke:none;fill-rule:nonzero;fill:rgb(100%,100%,100%);fill-opacity:1;" d="M 43.6875 43.78125 L 6.1875 43.78125 L 6.1875 6.28125 L 43.6875 6.28125 Z M 43.6875 43.78125 "/>
<path style=" stroke:none;fill-rule:nonzero;fill:rgb(0%,43.529412%,81.176471%);fill-opacity:1;" d="M 29.882812 32.410156 L 29.128906 31.480469 L 29.128906 32.410156 L 26.660156 32.410156 L 26.660156 30.824219 C 26.339844 30.972656 25.992188 31.046875 25.621094 31.046875 L 24.75 31.046875 L 24.75 32.410156 L 21.023438 32.410156 L 20.34375 31.515625 L 19.664062 32.410156 L 13.480469 32.410156 L 13.480469 26.519531 L 19.691406 26.519531 L 20.371094 27.40625 L 21.050781 26.519531 L 43.6875 26.519531 L 43.6875 6.28125 L 6.1875 6.28125 L 6.1875 22.097656 L 7.601562 18.796875 L 10.027344 18.796875 L 10.816406 20.636719 L 10.816406 18.796875 L 13.855469 18.796875 L 14.324219 20.132812 L 14.789062 18.796875 L 28.355469 18.796875 L 28.355469 19.480469 C 28.847656 19.046875 29.515625 18.796875 30.300781 18.796875 L 34.617188 18.796875 L 35.40625 20.636719 L 35.40625 18.796875 L 37.964844 18.796875 L 38.640625 19.847656 L 38.640625 18.796875 L 41.195312 18.796875 L 41.195312 24.6875 L 38.65625 24.6875 L 37.972656 23.621094 L 37.972656 24.6875 L 34.265625 24.6875 L 33.898438 23.785156 L 32.878906 23.785156 L 32.519531 24.6875 L 30.214844 24.6875 C 29.460938 24.6875 28.828125 24.457031 28.355469 24.050781 L 28.355469 24.6875 L 24.546875 24.6875 L 23.792969 23.757812 L 23.792969 24.6875 L 9.671875 24.6875 L 9.304688 23.785156 L 8.289062 23.785156 L 7.925781 24.6875 L 6.1875 24.6875 L 6.1875 43.78125 L 43.6875 43.78125 L 43.6875 31.976562 C 43.308594 32.25 42.820312 32.410156 42.261719 32.410156 Z M 29.882812 32.410156 "/>
<path style=" stroke:none;fill-rule:nonzero;fill:rgb(0%,43.529412%,81.176471%);fill-opacity:1;" d="M 43.273438 28.246094 L 43.714844 27.253906 L 41.378906 27.253906 C 40.417969 27.253906 39.847656 27.84375 39.847656 28.644531 C 39.847656 29.476562 40.386719 29.957031 41.226562 29.957031 L 42.273438 29.957031 C 42.507812 29.957031 42.671875 30.101562 42.671875 30.324219 C 42.671875 30.542969 42.507812 30.683594 42.273438 30.683594 L 39.984375 30.683594 L 39.984375 31.675781 L 42.261719 31.675781 C 43.222656 31.675781 43.792969 31.09375 43.792969 30.242188 C 43.792969 29.4375 43.292969 28.972656 42.414062 28.972656 L 41.367188 28.972656 C 41.136719 28.972656 40.96875 28.828125 40.96875 28.605469 C 40.96875 28.386719 41.136719 28.246094 41.367188 28.246094 Z M 36.921875 28.605469 C 36.921875 28.386719 37.085938 28.246094 37.320312 28.246094 L 39.226562 28.246094 L 39.667969 27.253906 L 37.332031 27.253906 C 36.371094 27.253906 35.800781 27.84375 35.800781 28.644531 C 35.800781 29.476562 36.339844 29.957031 37.179688 29.957031 L 38.226562 29.957031 C 38.460938 29.957031 38.625 30.101562 38.625 30.324219 C 38.625 30.542969 38.460938 30.683594 38.226562 30.683594 L 35.9375 30.683594 L 35.9375 31.675781 L 38.214844 31.675781 C 39.175781 31.675781 39.746094 31.09375 39.746094 30.242188 C 39.746094 29.4375 39.242188 28.972656 38.367188 28.972656 L 37.320312 28.972656 C 37.085938 28.972656 36.921875 28.828125 36.921875 28.605469 Z M 31.832031 31.675781 L 35.433594 31.675781 L 35.433594 30.683594 L 32.953125 30.683594 L 32.953125 29.933594 L 35.375 29.933594 L 35.375 28.964844 L 32.953125 28.964844 L 32.953125 28.246094 L 35.433594 28.246094 L 35.433594 27.253906 L 31.832031 27.253906 Z M 31.65625 31.675781 L 30.222656 30.0625 C 30.945312 29.914062 31.382812 29.371094 31.382812 28.683594 C 31.382812 27.835938 30.792969 27.253906 29.851562 27.253906 L 27.394531 27.253906 L 27.394531 31.675781 L 28.515625 31.675781 L 28.515625 30.109375 L 28.949219 30.109375 L 30.273438 31.675781 Z M 29.734375 29.148438 L 28.515625 29.148438 L 28.515625 28.246094 L 29.734375 28.246094 C 30.078125 28.246094 30.253906 28.453125 30.253906 28.699219 C 30.253906 28.953125 30.078125 29.148438 29.734375 29.148438 Z M 26.910156 28.746094 C 26.910156 27.863281 26.324219 27.253906 25.378906 27.253906 L 22.894531 27.253906 L 22.894531 31.675781 L 24.015625 31.675781 L 24.015625 30.234375 L 25.34375 30.234375 C 26.3125 30.234375 26.910156 29.597656 26.910156 28.746094 Z M 25.785156 28.75 C 25.785156 29.023438 25.605469 29.242188 25.265625 29.242188 L 24.015625 29.242188 L 24.015625 28.246094 L 25.265625 28.246094 C 25.605469 28.246094 25.785156 28.472656 25.785156 28.75 Z M 22.796875 31.675781 L 21.019531 29.445312 L 22.785156 27.253906 L 21.414062 27.253906 L 20.371094 28.613281 L 19.332031 27.253906 L 17.921875 27.253906 L 19.691406 29.472656 L 17.929688 31.675781 L 19.300781 31.675781 L 20.339844 30.304688 L 21.386719 31.675781 Z M 14.234375 31.675781 L 17.835938 31.675781 L 17.835938 30.683594 L 15.355469 30.683594 L 15.355469 29.933594 L 17.773438 29.933594 L 17.773438 28.964844 L 15.355469 28.964844 L 15.355469 28.246094 L 17.835938 28.246094 L 17.835938 27.253906 L 14.234375 27.253906 Z M 14.234375 31.675781 "/>
<path style=" stroke:none;fill-rule:nonzero;fill:rgb(0%,43.529412%,81.176471%);fill-opacity:1;" d="M 40.441406 23.953125 L 40.441406 19.53125 L 39.328125 19.53125 L 39.328125 22.273438 L 37.5625 19.53125 L 36.140625 19.53125 L 36.140625 23.953125 L 37.261719 23.953125 L 37.261719 21.109375 L 39.082031 23.953125 Z M 34.757812 23.953125 L 36.027344 23.953125 L 34.132812 19.53125 L 32.675781 19.53125 L 30.785156 23.953125 L 32.019531 23.953125 L 32.382812 23.046875 L 34.390625 23.046875 Z M 34 22.089844 L 32.773438 22.089844 L 33.386719 20.574219 Z M 30.386719 20.554688 L 31.574219 20.554688 L 31.574219 19.53125 L 30.300781 19.53125 C 28.910156 19.53125 28.164062 20.453125 28.164062 21.710938 L 28.164062 21.773438 C 28.164062 23.128906 28.945312 23.953125 30.214844 23.953125 L 30.304688 23.953125 L 30.765625 22.960938 L 30.402344 22.960938 C 29.699219 22.960938 29.28125 22.53125 29.28125 21.773438 L 29.28125 21.710938 C 29.28125 21.046875 29.652344 20.554688 30.386719 20.554688 Z M 26.5 23.953125 L 27.617188 23.953125 L 27.617188 19.53125 L 26.5 19.53125 Z M 26.320312 23.953125 L 24.886719 22.339844 C 25.609375 22.191406 26.046875 21.648438 26.046875 20.960938 C 26.046875 20.113281 25.457031 19.53125 24.515625 19.53125 L 22.058594 19.53125 L 22.058594 23.953125 L 23.179688 23.953125 L 23.179688 22.386719 L 23.613281 22.386719 L 24.9375 23.953125 Z M 24.398438 21.425781 L 23.179688 21.425781 L 23.179688 20.523438 L 24.398438 20.523438 C 24.742188 20.523438 24.917969 20.730469 24.917969 20.976562 C 24.917969 21.230469 24.742188 21.425781 24.398438 21.425781 Z M 17.820312 23.953125 L 21.421875 23.953125 L 21.421875 22.960938 L 18.941406 22.960938 L 18.941406 22.210938 L 21.359375 22.210938 L 21.359375 21.242188 L 18.941406 21.242188 L 18.941406 20.523438 L 21.421875 20.523438 L 21.421875 19.53125 L 17.820312 19.53125 Z M 15.964844 23.953125 L 17.074219 23.953125 L 17.074219 19.53125 L 15.3125 19.53125 L 14.324219 22.355469 L 13.332031 19.53125 L 11.550781 19.53125 L 11.550781 23.953125 L 12.660156 23.953125 L 12.660156 20.679688 L 13.824219 23.953125 L 14.800781 23.953125 L 15.964844 20.679688 Z M 10.167969 23.953125 L 11.433594 23.953125 L 9.542969 19.53125 L 8.085938 19.53125 L 6.191406 23.953125 L 7.429688 23.953125 L 7.792969 23.046875 L 9.800781 23.046875 Z M 9.40625 22.089844 L 8.183594 22.089844 L 8.796875 20.574219 Z M 9.40625 22.089844 "/>
</g>
</svg>
