<?xml version="1.0" encoding="UTF-8"?>
<svg xmlns="http://www.w3.org/2000/svg" xmlns:xlink="http://www.w3.org/1999/xlink" width="796px" height="266px" viewBox="0 0 598 200" version="1.1">
<g id="surface1">
<path style=" stroke:none;fill-rule:nonzero;fill:rgb(51.764706%,71.764706%,25.098039%);fill-opacity:1;" d="M 0 115.113281 L 253.023438 115.113281 L 253.023438 199.472656 L 0 199.472656 Z M 0 115.113281 "/>
<path style=" stroke:none;fill-rule:nonzero;fill:rgb(14.509804%,60.784314%,83.921569%);fill-opacity:1;" d="M 0 0 L 253.023438 0 L 253.023438 84.4375 L 0 84.4375 Z M 0 0 "/>
<path style=" stroke:none;fill-rule:nonzero;fill:rgb(15.294118%,16.078431%,17.647059%);fill-opacity:1;" d="M 506.046875 182.332031 L 504.917969 182.554688 C 501.011719 183.308594 499.585938 183.609375 496.730469 183.609375 C 490.121094 183.609375 482.304688 180.226562 482.304688 164.285156 C 482.304688 156.089844 483.660156 145.1875 495.980469 145.1875 L 496.054688 145.1875 C 498.15625 145.339844 500.5625 145.5625 505.070312 146.917969 L 506.046875 147.21875 Z M 508.074219 102.855469 L 506.046875 103.234375 L 506.046875 132.707031 L 504.242188 132.179688 L 503.71875 132.03125 C 501.6875 131.429688 497.03125 130.074219 492.523438 130.074219 C 467.882812 130.074219 462.699219 148.722656 462.699219 164.359375 C 462.699219 185.789062 474.71875 198.121094 495.679688 198.121094 C 504.542969 198.121094 511.078125 197.21875 517.691406 195.039062 C 523.777344 193.082031 525.953125 190.300781 525.953125 184.359375 L 525.953125 99.773438 C 520.09375 100.828125 514.007812 101.878906 508.074219 102.855469 "/>
<path style=" stroke:none;fill-rule:nonzero;fill:rgb(15.294118%,16.078431%,17.647059%);fill-opacity:1;" d="M 579.292969 182.855469 L 578.242188 183.15625 L 574.484375 184.136719 C 570.953125 185.039062 567.800781 185.5625 565.394531 185.5625 C 559.609375 185.5625 556.15625 182.707031 556.15625 177.820312 C 556.15625 174.660156 557.582031 169.324219 567.046875 169.324219 L 579.292969 169.324219 Z M 570.652344 129.699219 C 563.066406 129.699219 555.253906 131.050781 545.5625 134.058594 L 539.25 135.941406 L 541.355469 150.226562 L 547.515625 148.195312 C 553.976562 146.089844 562.015625 144.738281 568.023438 144.738281 C 570.730469 144.738281 578.992188 144.738281 578.992188 153.683594 L 578.992188 157.59375 L 567.5 157.59375 C 546.539062 157.59375 536.847656 164.285156 536.847656 178.648438 C 536.847656 190.902344 545.789062 198.269531 560.8125 198.269531 C 565.46875 198.269531 571.929688 197.367188 577.492188 196.015625 L 577.792969 195.941406 L 578.089844 196.015625 L 579.96875 196.316406 C 585.828125 197.367188 591.914062 198.421875 597.851562 199.550781 L 597.851562 152.632812 C 597.851562 137.445312 588.683594 129.699219 570.652344 129.699219 "/>
<path style=" stroke:none;fill-rule:nonzero;fill:rgb(15.294118%,16.078431%,17.647059%);fill-opacity:1;" d="M 433.324219 182.855469 L 432.273438 183.15625 L 428.515625 184.136719 C 424.984375 185.039062 421.90625 185.5625 419.425781 185.5625 C 413.640625 185.5625 410.1875 182.707031 410.1875 177.820312 C 410.1875 174.660156 411.613281 169.324219 421.003906 169.324219 L 433.25 169.324219 Z M 424.761719 129.699219 C 417.097656 129.699219 409.359375 131.050781 399.667969 134.058594 L 393.359375 135.941406 L 395.460938 150.226562 L 401.621094 148.195312 C 408.082031 146.089844 416.121094 144.738281 422.132812 144.738281 C 424.835938 144.738281 433.097656 144.738281 433.097656 153.683594 L 433.097656 157.59375 L 421.605469 157.59375 C 400.644531 157.59375 390.878906 164.285156 390.878906 178.648438 C 390.878906 190.902344 399.820312 198.269531 414.917969 198.269531 C 419.578125 198.269531 426.039062 197.367188 431.597656 196.015625 L 431.898438 195.941406 L 432.199219 196.015625 L 434 196.316406 C 439.9375 197.367188 445.945312 198.421875 451.878906 199.625 L 451.878906 152.707031 C 451.957031 137.367188 442.789062 129.699219 424.761719 129.699219 "/>
<path style=" stroke:none;fill-rule:nonzero;fill:rgb(15.294118%,16.078431%,17.647059%);fill-opacity:1;" d="M 354.21875 129.851562 C 344.675781 129.851562 336.789062 133.007812 333.859375 134.359375 L 333.105469 134.738281 L 332.429688 134.210938 C 328.375 131.277344 322.4375 129.773438 314.175781 129.773438 C 306.886719 129.773438 300.050781 130.828125 292.613281 133.007812 C 286.230469 134.960938 283.75 138.046875 283.75 143.835938 L 283.75 197.445312 L 303.734375 197.445312 L 303.734375 147.894531 L 304.710938 147.59375 C 308.765625 146.242188 311.171875 146.015625 313.5 146.015625 C 319.285156 146.015625 322.214844 149.097656 322.214844 155.113281 L 322.214844 197.519531 L 341.898438 197.519531 L 341.898438 154.285156 C 341.898438 151.730469 341.371094 150.226562 341.296875 149.925781 L 340.621094 148.648438 L 341.972656 148.046875 C 344.976562 146.691406 348.28125 146.015625 351.738281 146.015625 C 355.71875 146.015625 360.453125 147.59375 360.453125 155.113281 L 360.453125 197.519531 L 380.0625 197.519531 L 380.0625 153.15625 C 380.0625 137.445312 371.644531 129.851562 354.21875 129.851562 "/>
<path style=" stroke:none;fill-rule:nonzero;fill:rgb(15.294118%,16.078431%,17.647059%);fill-opacity:1;" d="M 564.570312 55.039062 C 561.640625 55.039062 556.757812 54.738281 552.925781 53.984375 L 551.796875 53.757812 L 551.796875 24.8125 C 551.796875 22.40625 551.347656 20.902344 551.273438 20.675781 L 550.671875 19.472656 L 551.949219 18.949219 C 552.25 18.796875 552.550781 18.722656 552.925781 18.570312 L 553.148438 18.421875 C 553.601562 18.269531 554.050781 18.121094 554.503906 17.96875 C 554.726562 17.894531 554.878906 17.820312 555.027344 17.820312 C 559.460938 16.617188 563.515625 16.765625 565.320312 16.617188 L 565.394531 16.617188 C 577.640625 16.617188 579.066406 27.519531 579.066406 35.714844 C 578.992188 51.652344 571.105469 55.039062 564.570312 55.039062 M 564.492188 0 C 564.34375 0 564.117188 0 563.96875 0 C 552.472656 0 540.679688 3.15625 536.472656 9.324219 C 534.21875 12.332031 532.941406 16.089844 532.867188 20.527344 L 532.867188 50.375 C 532.867188 52.933594 532.339844 53.910156 532.265625 54.136719 L 531.589844 55.414062 L 495.304688 55.414062 L 495.304688 34.660156 L 495.226562 34.660156 C 494.777344 12.78125 481.855469 0.75 463.148438 0.75 L 444.894531 0.75 C 444.144531 6.089844 443.542969 9.851562 442.789062 15.1875 L 460.972656 15.1875 C 470.511719 15.1875 475.546875 23.308594 475.546875 35.789062 L 475.546875 56.691406 L 474.269531 56.015625 C 474.042969 55.941406 472.464844 55.414062 469.984375 55.414062 L 438.582031 55.414062 C 437.980469 59.398438 437.230469 64.585938 436.40625 69.773438 L 532.941406 69.773438 C 536.246094 69.097656 540.078125 68.496094 543.382812 67.96875 C 548.265625 70.375 557.355469 71.652344 563.59375 71.652344 C 584.550781 71.652344 598.148438 57.59375 598.148438 35.941406 C 598.074219 14.511719 584.929688 0.449219 564.492188 0 "/>
<path style=" stroke:none;fill-rule:nonzero;fill:rgb(15.294118%,16.078431%,17.647059%);fill-opacity:1;" d="M 395.234375 78.570312 L 396.136719 78.570312 C 417.097656 78.570312 426.863281 71.652344 426.863281 54.585938 C 426.863281 42.332031 417.925781 32.554688 402.898438 32.554688 L 383.589844 32.554688 C 377.808594 32.554688 374.351562 29.25 374.351562 23.683594 C 374.351562 19.925781 375.777344 15.261719 385.246094 15.261719 L 427.464844 15.261719 C 428.367188 9.773438 428.816406 6.316406 429.644531 0.828125 L 385.769531 0.828125 C 365.335938 0.828125 355.042969 9.398438 355.042969 23.683594 C 355.042969 37.820312 363.984375 45.1875 379.007812 45.1875 L 398.316406 45.1875 C 404.101562 45.1875 407.554688 49.773438 407.554688 54.585938 C 407.554688 57.746094 406.128906 64.285156 396.738281 64.285156 L 393.507812 64.285156 L 331.679688 64.136719 L 320.410156 64.136719 C 310.871094 64.136719 304.183594 58.722656 304.183594 46.164062 L 304.183594 37.519531 C 304.183594 24.4375 309.367188 16.316406 320.410156 16.316406 L 338.742188 16.316406 C 339.566406 10.75 340.09375 7.21875 340.84375 1.953125 L 315.828125 1.953125 C 297.121094 1.953125 284.199219 14.511719 283.75 36.390625 L 283.75 46.164062 C 284.199219 68.046875 297.121094 78.496094 315.828125 78.496094 L 334.082031 78.496094 L 367.589844 78.570312 Z M 395.234375 78.570312 "/>
</g>
</svg>
